<?xml version="1.0" encoding="UTF-8" standalone="no"?>
<!-- Created with Inkscape (http://www.inkscape.org/) -->

<svg
   xmlns:dc="http://purl.org/dc/elements/1.1/"
   xmlns:cc="http://creativecommons.org/ns#"
   xmlns:rdf="http://www.w3.org/1999/02/22-rdf-syntax-ns#"
   xmlns:svg="http://www.w3.org/2000/svg"
   xmlns="http://www.w3.org/2000/svg"
   xmlns:sodipodi="http://sodipodi.sourceforge.net/DTD/sodipodi-0.dtd"
   xmlns:inkscape="http://www.inkscape.org/namespaces/inkscape"
   version="1.1"
   id="svg4504"
   width="100"
   height="100"
   viewBox="0 0 100 100"
   sodipodi:docname="GNS.svg"
   inkscape:version="0.92.2 (5c3e80d, 2017-08-06)">
  <metadata
     id="metadata4510">
    <rdf:RDF>
      <cc:Work
         rdf:about="">
        <dc:format>image/svg+xml</dc:format>
        <dc:type
           rdf:resource="http://purl.org/dc/dcmitype/StillImage" />
        <dc:title></dc:title>
      </cc:Work>
    </rdf:RDF>
  </metadata>
  <defs
     id="defs4508" />
  <sodipodi:namedview
     pagecolor="#ffffff"
     bordercolor="#666666"
     borderopacity="1"
     objecttolerance="10"
     gridtolerance="10"
     guidetolerance="10"
     inkscape:pageopacity="0"
     inkscape:pageshadow="2"
     inkscape:window-width="1920"
     inkscape:window-height="1017"
     id="namedview4506"
     showgrid="false"
     inkscape:pagecheckerboard="true"
     inkscape:zoom="2"
     inkscape:cx="194.82074"
     inkscape:cy="48.615224"
     inkscape:window-x="1912"
     inkscape:window-y="32"
     inkscape:window-maximized="1"
     inkscape:current-layer="svg4504" />
  <path
     style="fill:#484537;stroke:none"
     d="m 15.806825,2.9050793 v 11.4999997 14.625 l 6.79297,6.408204 c -2.90162,1.144766 -12.15174,4.804603 -12.08789,6.171874 v 54.535158 h 2.38672 l -0.002,0.88476 h 28.74024 l 0.42383,0.38086 20.748045,-24.035152 24.64649,23.253902 3.57422,0.0078 1.08984,-15.794926 -19.91211,-18.355468 9.87305,-11.4375 -0.0664,-2.892578 -9.01172,-9.058594 -3.02734,0.90625 -9.69336,11.486328 -25.787115,-23.773438 -1.375,-0.0039 V 14.405079 H 60.1818 L 70.9943,2.9050793 H 33.119325 Z M 32.845885,45.106251 51.11738,62.346486 30.377135,86.920704 h -3.33789 V 47.467579 c 0.0046,10e-6 0.01297,-5e-6 0.01758,0 0.89822,-0.573083 4.79021,-2.313734 5.78906,-2.361328 z"
     id="rect4524"
     inkscape:connector-curvature="0" />
</svg>
